<svg width="643" height="443" viewBox="0 0 643 443" fill="none" xmlns="http://www.w3.org/2000/svg">
<path d="M0 9.99996C0 4.47712 4.47715 -3.05176e-05 10 -3.05176e-05H633C638.523 -3.05176e-05 643 4.47712 643 9.99997V433C643 438.523 638.523 443 633 443H10C4.47716 443 0 438.523 0 433V9.99996Z" fill="#FFF3E3"/>
<path d="M57.9 104.496C61.748 104.496 65.1107 105.259 67.988 106.784C70.8653 108.309 73.084 110.459 74.644 113.232C76.2387 115.971 77.036 119.143 77.036 122.748C77.036 126.319 76.2387 129.491 74.644 132.264C73.084 135.037 70.848 137.187 67.936 138.712C65.0587 140.237 61.7133 141 57.9 141H44.224V104.496H57.9ZM57.328 133.304C60.6907 133.304 63.308 132.385 65.18 130.548C67.052 128.711 67.988 126.111 67.988 122.748C67.988 119.385 67.052 116.768 65.18 114.896C63.308 113.024 60.6907 112.088 57.328 112.088H53.116V133.304H57.328ZM86.4773 108.968C84.9173 108.968 83.6346 108.517 82.6293 107.616C81.6586 106.68 81.1733 105.536 81.1733 104.184C81.1733 102.797 81.6586 101.653 82.6293 100.752C83.6346 99.816 84.9173 99.348 86.4773 99.348C88.0026 99.348 89.2506 99.816 90.2213 100.752C91.2266 101.653 91.7293 102.797 91.7293 104.184C91.7293 105.536 91.2266 106.68 90.2213 107.616C89.2506 108.517 88.0026 108.968 86.4773 108.968ZM90.8973 111.984V141H82.0053V111.984H90.8973ZM109.145 141.416C106.615 141.416 104.361 140.983 102.385 140.116C100.409 139.249 98.8492 138.071 97.7052 136.58C96.5612 135.055 95.9199 133.356 95.7812 131.484H104.569C104.673 132.489 105.141 133.304 105.973 133.928C106.805 134.552 107.828 134.864 109.041 134.864C110.151 134.864 111 134.656 111.589 134.24C112.213 133.789 112.525 133.217 112.525 132.524C112.525 131.692 112.092 131.085 111.225 130.704C110.359 130.288 108.955 129.837 107.013 129.352C104.933 128.867 103.2 128.364 101.813 127.844C100.427 127.289 99.2305 126.44 98.2252 125.296C97.2199 124.117 96.7172 122.54 96.7172 120.564C96.7172 118.9 97.1679 117.392 98.0692 116.04C99.0052 114.653 100.357 113.561 102.125 112.764C103.928 111.967 106.06 111.568 108.521 111.568C112.161 111.568 115.021 112.469 117.101 114.272C119.216 116.075 120.429 118.467 120.741 121.448H112.525C112.387 120.443 111.936 119.645 111.173 119.056C110.445 118.467 109.475 118.172 108.261 118.172C107.221 118.172 106.424 118.38 105.869 118.796C105.315 119.177 105.037 119.715 105.037 120.408C105.037 121.24 105.471 121.864 106.337 122.28C107.239 122.696 108.625 123.112 110.497 123.528C112.647 124.083 114.397 124.637 115.749 125.192C117.101 125.712 118.28 126.579 119.285 127.792C120.325 128.971 120.863 130.565 120.897 132.576C120.897 134.275 120.412 135.8 119.441 137.152C118.505 138.469 117.136 139.509 115.333 140.272C113.565 141.035 111.503 141.416 109.145 141.416ZM124.569 126.492C124.569 123.476 125.176 120.841 126.389 118.588C127.637 116.335 129.353 114.601 131.537 113.388C133.756 112.175 136.287 111.568 139.129 111.568C142.769 111.568 145.803 112.521 148.229 114.428C150.691 116.335 152.303 119.021 153.065 122.488H143.601C142.804 120.269 141.261 119.16 138.973 119.16C137.344 119.16 136.044 119.801 135.073 121.084C134.103 122.332 133.617 124.135 133.617 126.492C133.617 128.849 134.103 130.669 135.073 131.952C136.044 133.2 137.344 133.824 138.973 133.824C141.261 133.824 142.804 132.715 143.601 130.496H153.065C152.303 133.893 150.691 136.563 148.229 138.504C145.768 140.445 142.735 141.416 139.129 141.416C136.287 141.416 133.756 140.809 131.537 139.596C129.353 138.383 127.637 136.649 126.389 134.396C125.176 132.143 124.569 129.508 124.569 126.492ZM171.03 141.416C168.187 141.416 165.622 140.809 163.334 139.596C161.08 138.383 159.295 136.649 157.978 134.396C156.695 132.143 156.054 129.508 156.054 126.492C156.054 123.511 156.712 120.893 158.03 118.64C159.347 116.352 161.15 114.601 163.438 113.388C165.726 112.175 168.291 111.568 171.134 111.568C173.976 111.568 176.542 112.175 178.83 113.388C181.118 114.601 182.92 116.352 184.238 118.64C185.555 120.893 186.214 123.511 186.214 126.492C186.214 129.473 185.538 132.108 184.186 134.396C182.868 136.649 181.048 138.383 178.726 139.596C176.438 140.809 173.872 141.416 171.03 141.416ZM171.03 133.72C172.728 133.72 174.167 133.096 175.346 131.848C176.559 130.6 177.166 128.815 177.166 126.492C177.166 124.169 176.576 122.384 175.398 121.136C174.254 119.888 172.832 119.264 171.134 119.264C169.4 119.264 167.962 119.888 166.818 121.136C165.674 122.349 165.102 124.135 165.102 126.492C165.102 128.815 165.656 130.6 166.766 131.848C167.91 133.096 169.331 133.72 171.03 133.72ZM203.983 132.68L210.275 111.984H219.739L209.443 141H198.471L188.175 111.984H197.691L203.983 132.68ZM250.834 126.024C250.834 126.856 250.782 127.723 250.678 128.624H230.554C230.692 130.427 231.264 131.813 232.27 132.784C233.31 133.72 234.575 134.188 236.066 134.188C238.284 134.188 239.827 133.252 240.694 131.38H250.158C249.672 133.287 248.788 135.003 247.506 136.528C246.258 138.053 244.68 139.249 242.774 140.116C240.867 140.983 238.735 141.416 236.378 141.416C233.535 141.416 231.004 140.809 228.786 139.596C226.567 138.383 224.834 136.649 223.586 134.396C222.338 132.143 221.714 129.508 221.714 126.492C221.714 123.476 222.32 120.841 223.534 118.588C224.782 116.335 226.515 114.601 228.734 113.388C230.952 112.175 233.5 111.568 236.378 111.568C239.186 111.568 241.682 112.157 243.866 113.336C246.05 114.515 247.748 116.196 248.962 118.38C250.21 120.564 250.834 123.112 250.834 126.024ZM241.734 123.684C241.734 122.159 241.214 120.945 240.174 120.044C239.134 119.143 237.834 118.692 236.274 118.692C234.783 118.692 233.518 119.125 232.478 119.992C231.472 120.859 230.848 122.089 230.606 123.684H241.734ZM264.417 116.82C265.457 115.225 266.757 113.977 268.317 113.076C269.877 112.14 271.61 111.672 273.517 111.672V121.084H271.073C268.854 121.084 267.19 121.569 266.081 122.54C264.971 123.476 264.417 125.14 264.417 127.532V141H255.525V111.984H264.417V116.82ZM306.051 141.364C302.619 141.364 299.464 140.567 296.587 138.972C293.744 137.377 291.473 135.159 289.775 132.316C288.11 129.439 287.278 126.215 287.278 122.644C287.278 119.073 288.11 115.867 289.775 113.024C291.473 110.181 293.744 107.963 296.587 106.368C299.464 104.773 302.619 103.976 306.051 103.976C309.483 103.976 312.62 104.773 315.463 106.368C318.34 107.963 320.593 110.181 322.223 113.024C323.887 115.867 324.719 119.073 324.719 122.644C324.719 126.215 323.887 129.439 322.223 132.316C320.559 135.159 318.305 137.377 315.463 138.972C312.62 140.567 309.483 141.364 306.051 141.364ZM306.051 133.252C308.963 133.252 311.285 132.281 313.018 130.34C314.787 128.399 315.671 125.833 315.671 122.644C315.671 119.42 314.787 116.855 313.018 114.948C311.285 113.007 308.963 112.036 306.051 112.036C303.104 112.036 300.747 112.989 298.979 114.896C297.245 116.803 296.379 119.385 296.379 122.644C296.379 125.868 297.245 128.451 298.979 130.392C300.747 132.299 303.104 133.252 306.051 133.252ZM358.317 111.984V141H349.425V137.048C348.524 138.331 347.293 139.371 345.733 140.168C344.208 140.931 342.509 141.312 340.637 141.312C338.419 141.312 336.46 140.827 334.761 139.856C333.063 138.851 331.745 137.412 330.809 135.54C329.873 133.668 329.405 131.467 329.405 128.936V111.984H338.245V127.74C338.245 129.681 338.748 131.189 339.753 132.264C340.759 133.339 342.111 133.876 343.809 133.876C345.543 133.876 346.912 133.339 347.917 132.264C348.923 131.189 349.425 129.681 349.425 127.74V111.984H358.317ZM373.596 116.82C374.636 115.225 375.936 113.977 377.496 113.076C379.056 112.14 380.79 111.672 382.696 111.672V121.084H380.252C378.034 121.084 376.37 121.569 375.26 122.54C374.151 123.476 373.596 125.14 373.596 127.532V141H364.704V111.984H373.596V116.82ZM76.88 206H67.988L53.116 183.484V206H44.224V169.496H53.116L67.988 192.116V169.496H76.88V206ZM110.678 191.024C110.678 191.856 110.626 192.723 110.522 193.624H90.3976C90.5362 195.427 91.1082 196.813 92.1136 197.784C93.1536 198.72 94.4189 199.188 95.9096 199.188C98.1282 199.188 99.6709 198.252 100.538 196.38H110.002C109.516 198.287 108.632 200.003 107.35 201.528C106.102 203.053 104.524 204.249 102.618 205.116C100.711 205.983 98.5789 206.416 96.2216 206.416C93.3789 206.416 90.8482 205.809 88.6296 204.596C86.4109 203.383 84.6776 201.649 83.4296 199.396C82.1816 197.143 81.5576 194.508 81.5576 191.492C81.5576 188.476 82.1642 185.841 83.3776 183.588C84.6256 181.335 86.3589 179.601 88.5776 178.388C90.7962 177.175 93.3442 176.568 96.2216 176.568C99.0296 176.568 101.526 177.157 103.71 178.336C105.894 179.515 107.592 181.196 108.806 183.38C110.054 185.564 110.678 188.112 110.678 191.024ZM101.578 188.684C101.578 187.159 101.058 185.945 100.018 185.044C98.9776 184.143 97.6776 183.692 96.1176 183.692C94.6269 183.692 93.3616 184.125 92.3216 184.992C91.3162 185.859 90.6922 187.089 90.4496 188.684H101.578ZM157.021 176.984L149.169 206H139.341L134.765 187.176L130.033 206H120.257L112.353 176.984H121.245L125.353 197.732L130.241 176.984H139.653L144.593 197.628L148.649 176.984H157.021ZM169.923 187.696C169.923 184.091 170.703 180.884 172.263 178.076C173.823 175.233 175.99 173.032 178.763 171.472C181.571 169.877 184.743 169.08 188.279 169.08C192.612 169.08 196.322 170.224 199.407 172.512C202.492 174.8 204.555 177.92 205.595 181.872H195.819C195.091 180.347 194.051 179.185 192.699 178.388C191.382 177.591 189.874 177.192 188.175 177.192C185.436 177.192 183.218 178.145 181.519 180.052C179.82 181.959 178.971 184.507 178.971 187.696C178.971 190.885 179.82 193.433 181.519 195.34C183.218 197.247 185.436 198.2 188.175 198.2C189.874 198.2 191.382 197.801 192.699 197.004C194.051 196.207 195.091 195.045 195.819 193.52H205.595C204.555 197.472 202.492 200.592 199.407 202.88C196.322 205.133 192.612 206.26 188.279 206.26C184.743 206.26 181.571 205.48 178.763 203.92C175.99 202.325 173.823 200.124 172.263 197.316C170.703 194.508 169.923 191.301 169.923 187.696ZM224.248 206.416C221.406 206.416 218.84 205.809 216.552 204.596C214.299 203.383 212.514 201.649 211.196 199.396C209.914 197.143 209.272 194.508 209.272 191.492C209.272 188.511 209.931 185.893 211.248 183.64C212.566 181.352 214.368 179.601 216.656 178.388C218.944 177.175 221.51 176.568 224.352 176.568C227.195 176.568 229.76 177.175 232.048 178.388C234.336 179.601 236.139 181.352 237.456 183.64C238.774 185.893 239.432 188.511 239.432 191.492C239.432 194.473 238.756 197.108 237.404 199.396C236.087 201.649 234.267 203.383 231.944 204.596C229.656 205.809 227.091 206.416 224.248 206.416ZM224.248 198.72C225.947 198.72 227.386 198.096 228.564 196.848C229.778 195.6 230.384 193.815 230.384 191.492C230.384 189.169 229.795 187.384 228.616 186.136C227.472 184.888 226.051 184.264 224.352 184.264C222.619 184.264 221.18 184.888 220.036 186.136C218.892 187.349 218.32 189.135 218.32 191.492C218.32 193.815 218.875 195.6 219.984 196.848C221.128 198.096 222.55 198.72 224.248 198.72ZM253.042 167.52V206H244.15V167.52H253.042ZM268.378 167.52V206H259.486V167.52H268.378ZM302.174 191.024C302.174 191.856 302.122 192.723 302.018 193.624H281.894C282.032 195.427 282.604 196.813 283.61 197.784C284.65 198.72 285.915 199.188 287.406 199.188C289.624 199.188 291.167 198.252 292.034 196.38H301.498C301.012 198.287 300.128 200.003 298.846 201.528C297.598 203.053 296.02 204.249 294.114 205.116C292.207 205.983 290.075 206.416 287.718 206.416C284.875 206.416 282.344 205.809 280.126 204.596C277.907 203.383 276.174 201.649 274.926 199.396C273.678 197.143 273.054 194.508 273.054 191.492C273.054 188.476 273.66 185.841 274.874 183.588C276.122 181.335 277.855 179.601 280.074 178.388C282.292 177.175 284.84 176.568 287.718 176.568C290.526 176.568 293.022 177.157 295.206 178.336C297.39 179.515 299.088 181.196 300.302 183.38C301.55 185.564 302.174 188.112 302.174 191.024ZM293.074 188.684C293.074 187.159 292.554 185.945 291.514 185.044C290.474 184.143 289.174 183.692 287.614 183.692C286.123 183.692 284.858 184.125 283.818 184.992C282.812 185.859 282.188 187.089 281.946 188.684H293.074ZM305.097 191.492C305.097 188.476 305.703 185.841 306.917 183.588C308.165 181.335 309.881 179.601 312.065 178.388C314.283 177.175 316.814 176.568 319.657 176.568C323.297 176.568 326.33 177.521 328.757 179.428C331.218 181.335 332.83 184.021 333.593 187.488H324.129C323.331 185.269 321.789 184.16 319.501 184.16C317.871 184.16 316.571 184.801 315.601 186.084C314.63 187.332 314.145 189.135 314.145 191.492C314.145 193.849 314.63 195.669 315.601 196.952C316.571 198.2 317.871 198.824 319.501 198.824C321.789 198.824 323.331 197.715 324.129 195.496H333.593C332.83 198.893 331.218 201.563 328.757 203.504C326.295 205.445 323.262 206.416 319.657 206.416C316.814 206.416 314.283 205.809 312.065 204.596C309.881 203.383 308.165 201.649 306.917 199.396C305.703 197.143 305.097 194.508 305.097 191.492ZM354.521 198.46V206H349.997C346.773 206 344.26 205.22 342.457 203.66C340.654 202.065 339.753 199.483 339.753 195.912V184.368H336.217V176.984H339.753V169.912H348.645V176.984H354.469V184.368H348.645V196.016C348.645 196.883 348.853 197.507 349.269 197.888C349.685 198.269 350.378 198.46 351.349 198.46H354.521ZM363.946 173.968C362.386 173.968 361.103 173.517 360.098 172.616C359.127 171.68 358.642 170.536 358.642 169.184C358.642 167.797 359.127 166.653 360.098 165.752C361.103 164.816 362.386 164.348 363.946 164.348C365.471 164.348 366.719 164.816 367.69 165.752C368.695 166.653 369.198 167.797 369.198 169.184C369.198 170.536 368.695 171.68 367.69 172.616C366.719 173.517 365.471 173.968 363.946 173.968ZM368.366 176.984V206H359.474V176.984H368.366ZM388.018 206.416C385.175 206.416 382.61 205.809 380.322 204.596C378.069 203.383 376.283 201.649 374.966 199.396C373.683 197.143 373.042 194.508 373.042 191.492C373.042 188.511 373.701 185.893 375.018 183.64C376.335 181.352 378.138 179.601 380.426 178.388C382.714 177.175 385.279 176.568 388.122 176.568C390.965 176.568 393.53 177.175 395.818 178.388C398.106 179.601 399.909 181.352 401.226 183.64C402.543 185.893 403.202 188.511 403.202 191.492C403.202 194.473 402.526 197.108 401.174 199.396C399.857 201.649 398.037 203.383 395.714 204.596C393.426 205.809 390.861 206.416 388.018 206.416ZM388.018 198.72C389.717 198.72 391.155 198.096 392.334 196.848C393.547 195.6 394.154 193.815 394.154 191.492C394.154 189.169 393.565 187.384 392.386 186.136C391.242 184.888 389.821 184.264 388.122 184.264C386.389 184.264 384.95 184.888 383.806 186.136C382.662 187.349 382.09 189.135 382.09 191.492C382.09 193.815 382.645 195.6 383.754 196.848C384.898 198.096 386.319 198.72 388.018 198.72ZM425.599 176.672C428.997 176.672 431.701 177.781 433.711 180C435.757 182.184 436.779 185.2 436.779 189.048V206H427.939V190.244C427.939 188.303 427.437 186.795 426.431 185.72C425.426 184.645 424.074 184.108 422.375 184.108C420.677 184.108 419.325 184.645 418.319 185.72C417.314 186.795 416.811 188.303 416.811 190.244V206H407.919V176.984H416.811V180.832C417.713 179.549 418.926 178.544 420.451 177.816C421.977 177.053 423.693 176.672 425.599 176.672Z" fill="#B88E2F"/>
<path d="M44.402 250.344H48.632V252H42.35V239.49H44.402V250.344ZM54.65 252.162C53.714 252.162 52.868 251.952 52.112 251.532C51.356 251.1 50.762 250.5 50.33 249.732C49.898 248.952 49.682 248.052 49.682 247.032C49.682 246.024 49.904 245.13 50.348 244.35C50.792 243.57 51.398 242.97 52.166 242.55C52.934 242.13 53.792 241.92 54.74 241.92C55.688 241.92 56.546 242.13 57.314 242.55C58.082 242.97 58.688 243.57 59.132 244.35C59.576 245.13 59.798 246.024 59.798 247.032C59.798 248.04 59.57 248.934 59.114 249.714C58.658 250.494 58.034 251.1 57.242 251.532C56.462 251.952 55.598 252.162 54.65 252.162ZM54.65 250.38C55.178 250.38 55.67 250.254 56.126 250.002C56.594 249.75 56.972 249.372 57.26 248.868C57.548 248.364 57.692 247.752 57.692 247.032C57.692 246.312 57.554 245.706 57.278 245.214C57.002 244.71 56.636 244.332 56.18 244.08C55.724 243.828 55.232 243.702 54.704 243.702C54.176 243.702 53.684 243.828 53.228 244.08C52.784 244.332 52.43 244.71 52.166 245.214C51.902 245.706 51.77 246.312 51.77 247.032C51.77 248.1 52.04 248.928 52.58 249.516C53.132 250.092 53.822 250.38 54.65 250.38ZM63.8786 243.522C64.1786 243.018 64.5746 242.628 65.0666 242.352C65.5706 242.064 66.1646 241.92 66.8486 241.92V244.044H66.3266C65.5226 244.044 64.9106 244.248 64.4906 244.656C64.0826 245.064 63.8786 245.772 63.8786 246.78V252H61.8266V242.082H63.8786V243.522ZM77.8248 246.798C77.8248 247.17 77.8008 247.506 77.7528 247.806H70.1748C70.2348 248.598 70.5288 249.234 71.0568 249.714C71.5848 250.194 72.2328 250.434 73.0008 250.434C74.1048 250.434 74.8848 249.972 75.3408 249.048H77.5548C77.2548 249.96 76.7088 250.71 75.9168 251.298C75.1368 251.874 74.1648 252.162 73.0008 252.162C72.0528 252.162 71.2008 251.952 70.4448 251.532C69.7008 251.1 69.1128 250.5 68.6808 249.732C68.2608 248.952 68.0508 248.052 68.0508 247.032C68.0508 246.012 68.2548 245.118 68.6628 244.35C69.0828 243.57 69.6648 242.97 70.4088 242.55C71.1648 242.13 72.0288 241.92 73.0008 241.92C73.9368 241.92 74.7708 242.124 75.5028 242.532C76.2348 242.94 76.8048 243.516 77.2128 244.26C77.6208 244.992 77.8248 245.838 77.8248 246.798ZM75.6828 246.15C75.6708 245.394 75.4008 244.788 74.8728 244.332C74.3448 243.876 73.6908 243.648 72.9108 243.648C72.2028 243.648 71.5968 243.876 71.0928 244.332C70.5888 244.776 70.2888 245.382 70.1928 246.15H75.6828ZM91.8501 241.92C92.6301 241.92 93.3261 242.082 93.9381 242.406C94.5621 242.73 95.0481 243.21 95.3961 243.846C95.7561 244.482 95.9361 245.25 95.9361 246.15V252H93.9021V246.456C93.9021 245.568 93.6801 244.89 93.2361 244.422C92.7921 243.942 92.1861 243.702 91.4181 243.702C90.6501 243.702 90.0381 243.942 89.5821 244.422C89.1381 244.89 88.9161 245.568 88.9161 246.456V252H86.8821V246.456C86.8821 245.568 86.6601 244.89 86.2161 244.422C85.7721 243.942 85.1661 243.702 84.3981 243.702C83.6301 243.702 83.0181 243.942 82.5621 244.422C82.1181 244.89 81.8961 245.568 81.8961 246.456V252H79.8441V242.082H81.8961V243.216C82.2321 242.808 82.6581 242.49 83.1741 242.262C83.6901 242.034 84.2421 241.92 84.8301 241.92C85.6221 241.92 86.3301 242.088 86.9541 242.424C87.5781 242.76 88.0581 243.246 88.3941 243.882C88.6941 243.282 89.1621 242.808 89.7981 242.46C90.4341 242.1 91.1181 241.92 91.8501 241.92ZM104.267 240.768C103.895 240.768 103.583 240.642 103.331 240.39C103.079 240.138 102.953 239.826 102.953 239.454C102.953 239.082 103.079 238.77 103.331 238.518C103.583 238.266 103.895 238.14 104.267 238.14C104.627 238.14 104.933 238.266 105.185 238.518C105.437 238.77 105.563 239.082 105.563 239.454C105.563 239.826 105.437 240.138 105.185 240.39C104.933 240.642 104.627 240.768 104.267 240.768ZM105.275 242.082V252H103.223V242.082H105.275ZM110.021 243.54C110.369 243.084 110.843 242.7 111.443 242.388C112.043 242.076 112.721 241.92 113.477 241.92C114.341 241.92 115.127 242.136 115.835 242.568C116.555 242.988 117.119 243.582 117.527 244.35C117.935 245.118 118.139 246 118.139 246.996C118.139 247.992 117.935 248.886 117.527 249.678C117.119 250.458 116.555 251.07 115.835 251.514C115.127 251.946 114.341 252.162 113.477 252.162C112.721 252.162 112.049 252.012 111.461 251.712C110.873 251.4 110.393 251.016 110.021 250.56V256.716H107.969V242.082H110.021V243.54ZM116.051 246.996C116.051 246.312 115.907 245.724 115.619 245.232C115.343 244.728 114.971 244.35 114.503 244.098C114.047 243.834 113.555 243.702 113.027 243.702C112.511 243.702 112.019 243.834 111.551 244.098C111.095 244.362 110.723 244.746 110.435 245.25C110.159 245.754 110.021 246.348 110.021 247.032C110.021 247.716 110.159 248.316 110.435 248.832C110.723 249.336 111.095 249.72 111.551 249.984C112.019 250.248 112.511 250.38 113.027 250.38C113.555 250.38 114.047 250.248 114.503 249.984C114.971 249.708 115.343 249.312 115.619 248.796C115.907 248.28 116.051 247.68 116.051 246.996ZM123.768 252.162C122.988 252.162 122.286 252.024 121.662 251.748C121.05 251.46 120.564 251.076 120.204 250.596C119.844 250.104 119.652 249.558 119.628 248.958H121.752C121.788 249.378 121.986 249.732 122.346 250.02C122.718 250.296 123.18 250.434 123.732 250.434C124.308 250.434 124.752 250.326 125.064 250.11C125.388 249.882 125.55 249.594 125.55 249.246C125.55 248.874 125.37 248.598 125.01 248.418C124.662 248.238 124.104 248.04 123.336 247.824C122.592 247.62 121.986 247.422 121.518 247.23C121.05 247.038 120.642 246.744 120.294 246.348C119.958 245.952 119.79 245.43 119.79 244.782C119.79 244.254 119.946 243.774 120.258 243.342C120.57 242.898 121.014 242.55 121.59 242.298C122.178 242.046 122.85 241.92 123.606 241.92C124.734 241.92 125.64 242.208 126.324 242.784C127.02 243.348 127.392 244.122 127.44 245.106H125.388C125.352 244.662 125.172 244.308 124.848 244.044C124.524 243.78 124.086 243.648 123.534 243.648C122.994 243.648 122.58 243.75 122.292 243.954C122.004 244.158 121.86 244.428 121.86 244.764C121.86 245.028 121.956 245.25 122.148 245.43C122.34 245.61 122.574 245.754 122.85 245.862C123.126 245.958 123.534 246.084 124.074 246.24C124.794 246.432 125.382 246.63 125.838 246.834C126.306 247.026 126.708 247.314 127.044 247.698C127.38 248.082 127.554 248.592 127.566 249.228C127.566 249.792 127.41 250.296 127.098 250.74C126.786 251.184 126.342 251.532 125.766 251.784C125.202 252.036 124.536 252.162 123.768 252.162ZM138.766 242.082V252H136.714V250.83C136.39 251.238 135.964 251.562 135.436 251.802C134.92 252.03 134.368 252.144 133.78 252.144C133 252.144 132.298 251.982 131.674 251.658C131.062 251.334 130.576 250.854 130.216 250.218C129.868 249.582 129.694 248.814 129.694 247.914V242.082H131.728V247.608C131.728 248.496 131.95 249.18 132.394 249.66C132.838 250.128 133.444 250.362 134.212 250.362C134.98 250.362 135.586 250.128 136.03 249.66C136.486 249.18 136.714 248.496 136.714 247.608V242.082H138.766ZM153.479 241.92C154.259 241.92 154.955 242.082 155.567 242.406C156.191 242.73 156.677 243.21 157.025 243.846C157.385 244.482 157.565 245.25 157.565 246.15V252H155.531V246.456C155.531 245.568 155.309 244.89 154.865 244.422C154.421 243.942 153.815 243.702 153.047 243.702C152.279 243.702 151.667 243.942 151.211 244.422C150.767 244.89 150.545 245.568 150.545 246.456V252H148.511V246.456C148.511 245.568 148.289 244.89 147.845 244.422C147.401 243.942 146.795 243.702 146.027 243.702C145.259 243.702 144.647 243.942 144.191 244.422C143.747 244.89 143.525 245.568 143.525 246.456V252H141.473V242.082H143.525V243.216C143.861 242.808 144.287 242.49 144.803 242.262C145.319 242.034 145.871 241.92 146.459 241.92C147.251 241.92 147.959 242.088 148.583 242.424C149.207 242.76 149.687 243.246 150.023 243.882C150.323 243.282 150.791 242.808 151.427 242.46C152.063 242.1 152.747 241.92 153.479 241.92ZM164.168 246.996C164.168 246 164.372 245.118 164.78 244.35C165.2 243.582 165.764 242.988 166.472 242.568C167.192 242.136 167.99 241.92 168.866 241.92C169.514 241.92 170.15 242.064 170.774 242.352C171.41 242.628 171.914 243 172.286 243.468V238.68H174.356V252H172.286V250.506C171.95 250.986 171.482 251.382 170.882 251.694C170.294 252.006 169.616 252.162 168.848 252.162C167.984 252.162 167.192 251.946 166.472 251.514C165.764 251.07 165.2 250.458 164.78 249.678C164.372 248.886 164.168 247.992 164.168 246.996ZM172.286 247.032C172.286 246.348 172.142 245.754 171.854 245.25C171.578 244.746 171.212 244.362 170.756 244.098C170.3 243.834 169.808 243.702 169.28 243.702C168.752 243.702 168.26 243.834 167.804 244.098C167.348 244.35 166.976 244.728 166.688 245.232C166.412 245.724 166.274 246.312 166.274 246.996C166.274 247.68 166.412 248.28 166.688 248.796C166.976 249.312 167.348 249.708 167.804 249.984C168.272 250.248 168.764 250.38 169.28 250.38C169.808 250.38 170.3 250.248 170.756 249.984C171.212 249.72 171.578 249.336 171.854 248.832C172.142 248.316 172.286 247.716 172.286 247.032ZM181.353 252.162C180.417 252.162 179.571 251.952 178.815 251.532C178.059 251.1 177.465 250.5 177.033 249.732C176.601 248.952 176.385 248.052 176.385 247.032C176.385 246.024 176.607 245.13 177.051 244.35C177.495 243.57 178.101 242.97 178.869 242.55C179.637 242.13 180.495 241.92 181.443 241.92C182.391 241.92 183.249 242.13 184.017 242.55C184.785 242.97 185.391 243.57 185.835 244.35C186.279 245.13 186.501 246.024 186.501 247.032C186.501 248.04 186.273 248.934 185.817 249.714C185.361 250.494 184.737 251.1 183.945 251.532C183.165 251.952 182.301 252.162 181.353 252.162ZM181.353 250.38C181.881 250.38 182.373 250.254 182.829 250.002C183.297 249.75 183.675 249.372 183.963 248.868C184.251 248.364 184.395 247.752 184.395 247.032C184.395 246.312 184.257 245.706 183.981 245.214C183.705 244.71 183.339 244.332 182.883 244.08C182.427 243.828 181.935 243.702 181.407 243.702C180.879 243.702 180.387 243.828 179.931 244.08C179.487 244.332 179.133 244.71 178.869 245.214C178.605 245.706 178.473 246.312 178.473 247.032C178.473 248.1 178.743 248.928 179.283 249.516C179.835 250.092 180.525 250.38 181.353 250.38ZM190.582 238.68V252H188.53V238.68H190.582ZM197.578 252.162C196.642 252.162 195.796 251.952 195.04 251.532C194.284 251.1 193.69 250.5 193.258 249.732C192.826 248.952 192.61 248.052 192.61 247.032C192.61 246.024 192.832 245.13 193.276 244.35C193.72 243.57 194.326 242.97 195.094 242.55C195.862 242.13 196.72 241.92 197.668 241.92C198.616 241.92 199.474 242.13 200.242 242.55C201.01 242.97 201.616 243.57 202.06 244.35C202.504 245.13 202.726 246.024 202.726 247.032C202.726 248.04 202.498 248.934 202.042 249.714C201.586 250.494 200.962 251.1 200.17 251.532C199.39 251.952 198.526 252.162 197.578 252.162ZM197.578 250.38C198.106 250.38 198.598 250.254 199.054 250.002C199.522 249.75 199.9 249.372 200.188 248.868C200.476 248.364 200.62 247.752 200.62 247.032C200.62 246.312 200.482 245.706 200.206 245.214C199.93 244.71 199.564 244.332 199.108 244.08C198.652 243.828 198.16 243.702 197.632 243.702C197.104 243.702 196.612 243.828 196.156 244.08C195.712 244.332 195.358 244.71 195.094 245.214C194.83 245.706 194.698 246.312 194.698 247.032C194.698 248.1 194.968 248.928 195.508 249.516C196.06 250.092 196.75 250.38 197.578 250.38ZM206.806 243.522C207.106 243.018 207.502 242.628 207.994 242.352C208.498 242.064 209.092 241.92 209.776 241.92V244.044H209.254C208.45 244.044 207.838 244.248 207.418 244.656C207.01 245.064 206.806 245.772 206.806 246.78V252H204.754V242.082H206.806V243.522ZM219.938 252.162C219.158 252.162 218.456 252.024 217.832 251.748C217.22 251.46 216.734 251.076 216.374 250.596C216.014 250.104 215.822 249.558 215.798 248.958H217.922C217.958 249.378 218.156 249.732 218.516 250.02C218.888 250.296 219.35 250.434 219.902 250.434C220.478 250.434 220.922 250.326 221.234 250.11C221.558 249.882 221.72 249.594 221.72 249.246C221.72 248.874 221.54 248.598 221.18 248.418C220.832 248.238 220.274 248.04 219.506 247.824C218.762 247.62 218.156 247.422 217.688 247.23C217.22 247.038 216.812 246.744 216.464 246.348C216.128 245.952 215.96 245.43 215.96 244.782C215.96 244.254 216.116 243.774 216.428 243.342C216.74 242.898 217.184 242.55 217.76 242.298C218.348 242.046 219.02 241.92 219.776 241.92C220.904 241.92 221.81 242.208 222.494 242.784C223.19 243.348 223.562 244.122 223.61 245.106H221.558C221.522 244.662 221.342 244.308 221.018 244.044C220.694 243.78 220.256 243.648 219.704 243.648C219.164 243.648 218.75 243.75 218.462 243.954C218.174 244.158 218.03 244.428 218.03 244.764C218.03 245.028 218.126 245.25 218.318 245.43C218.51 245.61 218.744 245.754 219.02 245.862C219.296 245.958 219.704 246.084 220.244 246.24C220.964 246.432 221.552 246.63 222.008 246.834C222.476 247.026 222.878 247.314 223.214 247.698C223.55 248.082 223.724 248.592 223.736 249.228C223.736 249.792 223.58 250.296 223.268 250.74C222.956 251.184 222.512 251.532 221.936 251.784C221.372 252.036 220.706 252.162 219.938 252.162ZM226.998 240.768C226.626 240.768 226.314 240.642 226.062 240.39C225.81 240.138 225.684 239.826 225.684 239.454C225.684 239.082 225.81 238.77 226.062 238.518C226.314 238.266 226.626 238.14 226.998 238.14C227.358 238.14 227.664 238.266 227.916 238.518C228.168 238.77 228.294 239.082 228.294 239.454C228.294 239.826 228.168 240.138 227.916 240.39C227.664 240.642 227.358 240.768 226.998 240.768ZM228.006 242.082V252H225.954V242.082H228.006ZM233.094 243.756V249.246C233.094 249.618 233.178 249.888 233.346 250.056C233.526 250.212 233.826 250.29 234.246 250.29H235.506V252H233.886C232.962 252 232.254 251.784 231.762 251.352C231.27 250.92 231.024 250.218 231.024 249.246V243.756H229.854V242.082H231.024V239.616H233.094V242.082H235.506V243.756H233.094ZM241.389 246.996C241.389 246 241.593 245.118 242.001 244.35C242.421 243.582 242.985 242.988 243.693 242.568C244.413 242.136 245.205 241.92 246.069 241.92C246.849 241.92 247.527 242.076 248.103 242.388C248.691 242.688 249.159 243.066 249.507 243.522V242.082H251.577V252H249.507V250.524C249.159 250.992 248.685 251.382 248.085 251.694C247.485 252.006 246.801 252.162 246.033 252.162C245.181 252.162 244.401 251.946 243.693 251.514C242.985 251.07 242.421 250.458 242.001 249.678C241.593 248.886 241.389 247.992 241.389 246.996ZM249.507 247.032C249.507 246.348 249.363 245.754 249.075 245.25C248.799 244.746 248.433 244.362 247.977 244.098C247.521 243.834 247.029 243.702 246.501 243.702C245.973 243.702 245.481 243.834 245.025 244.098C244.569 244.35 244.197 244.728 243.909 245.232C243.633 245.724 243.495 246.312 243.495 246.996C243.495 247.68 243.633 248.28 243.909 248.796C244.197 249.312 244.569 249.708 245.025 249.984C245.493 250.248 245.985 250.38 246.501 250.38C247.029 250.38 247.521 250.248 247.977 249.984C248.433 249.72 248.799 249.336 249.075 248.832C249.363 248.316 249.507 247.716 249.507 247.032ZM266.278 241.92C267.058 241.92 267.754 242.082 268.366 242.406C268.99 242.73 269.476 243.21 269.824 243.846C270.184 244.482 270.364 245.25 270.364 246.15V252H268.33V246.456C268.33 245.568 268.108 244.89 267.664 244.422C267.22 243.942 266.614 243.702 265.846 243.702C265.078 243.702 264.466 243.942 264.01 244.422C263.566 244.89 263.344 245.568 263.344 246.456V252H261.31V246.456C261.31 245.568 261.088 244.89 260.644 244.422C260.2 243.942 259.594 243.702 258.826 243.702C258.058 243.702 257.446 243.942 256.99 244.422C256.546 244.89 256.324 245.568 256.324 246.456V252H254.272V242.082H256.324V243.216C256.66 242.808 257.086 242.49 257.602 242.262C258.118 242.034 258.67 241.92 259.258 241.92C260.05 241.92 260.758 242.088 261.382 242.424C262.006 242.76 262.486 243.246 262.822 243.882C263.122 243.282 263.59 242.808 264.226 242.46C264.862 242.1 265.546 241.92 266.278 241.92ZM282.065 246.798C282.065 247.17 282.041 247.506 281.993 247.806H274.415C274.475 248.598 274.769 249.234 275.297 249.714C275.825 250.194 276.473 250.434 277.241 250.434C278.345 250.434 279.125 249.972 279.581 249.048H281.795C281.495 249.96 280.949 250.71 280.157 251.298C279.377 251.874 278.405 252.162 277.241 252.162C276.293 252.162 275.441 251.952 274.685 251.532C273.941 251.1 273.353 250.5 272.921 249.732C272.501 248.952 272.291 248.052 272.291 247.032C272.291 246.012 272.495 245.118 272.903 244.35C273.323 243.57 273.905 242.97 274.649 242.55C275.405 242.13 276.269 241.92 277.241 241.92C278.177 241.92 279.011 242.124 279.743 242.532C280.475 242.94 281.045 243.516 281.453 244.26C281.861 244.992 282.065 245.838 282.065 246.798ZM279.923 246.15C279.911 245.394 279.641 244.788 279.113 244.332C278.585 243.876 277.931 243.648 277.151 243.648C276.443 243.648 275.837 243.876 275.333 244.332C274.829 244.776 274.529 245.382 274.433 246.15H279.923ZM286.478 243.756V249.246C286.478 249.618 286.562 249.888 286.73 250.056C286.91 250.212 287.21 250.29 287.63 250.29H288.89V252H287.27C286.346 252 285.638 251.784 285.146 251.352C284.654 250.92 284.408 250.218 284.408 249.246V243.756H283.238V242.082H284.408V239.616H286.478V242.082H288.89V243.756H286.478ZM293.032 249.534L290.854 254.502H289.522L290.8 249.534H293.032ZM298.816 247.032C298.816 246.012 299.02 245.118 299.428 244.35C299.848 243.57 300.424 242.97 301.156 242.55C301.888 242.13 302.728 241.92 303.676 241.92C304.876 241.92 305.866 242.208 306.646 242.784C307.438 243.348 307.972 244.158 308.248 245.214H306.034C305.854 244.722 305.566 244.338 305.17 244.062C304.774 243.786 304.276 243.648 303.676 243.648C302.836 243.648 302.164 243.948 301.66 244.548C301.168 245.136 300.922 245.964 300.922 247.032C300.922 248.1 301.168 248.934 301.66 249.534C302.164 250.134 302.836 250.434 303.676 250.434C304.864 250.434 305.65 249.912 306.034 248.868H308.248C307.96 249.876 307.42 250.68 306.628 251.28C305.836 251.868 304.852 252.162 303.676 252.162C302.728 252.162 301.888 251.952 301.156 251.532C300.424 251.1 299.848 250.5 299.428 249.732C299.02 248.952 298.816 248.052 298.816 247.032ZM314.595 252.162C313.659 252.162 312.813 251.952 312.057 251.532C311.301 251.1 310.707 250.5 310.275 249.732C309.843 248.952 309.627 248.052 309.627 247.032C309.627 246.024 309.849 245.13 310.293 244.35C310.737 243.57 311.343 242.97 312.111 242.55C312.879 242.13 313.737 241.92 314.685 241.92C315.633 241.92 316.491 242.13 317.259 242.55C318.027 242.97 318.633 243.57 319.077 244.35C319.521 245.13 319.743 246.024 319.743 247.032C319.743 248.04 319.515 248.934 319.059 249.714C318.603 250.494 317.979 251.1 317.187 251.532C316.407 251.952 315.543 252.162 314.595 252.162ZM314.595 250.38C315.123 250.38 315.615 250.254 316.071 250.002C316.539 249.75 316.917 249.372 317.205 248.868C317.493 248.364 317.637 247.752 317.637 247.032C317.637 246.312 317.499 245.706 317.223 245.214C316.947 244.71 316.581 244.332 316.125 244.08C315.669 243.828 315.177 243.702 314.649 243.702C314.121 243.702 313.629 243.828 313.173 244.08C312.729 244.332 312.375 244.71 312.111 245.214C311.847 245.706 311.715 246.312 311.715 247.032C311.715 248.1 311.985 248.928 312.525 249.516C313.077 250.092 313.767 250.38 314.595 250.38ZM326.776 241.92C327.556 241.92 328.252 242.082 328.864 242.406C329.488 242.73 329.974 243.21 330.322 243.846C330.67 244.482 330.844 245.25 330.844 246.15V252H328.81V246.456C328.81 245.568 328.588 244.89 328.144 244.422C327.7 243.942 327.094 243.702 326.326 243.702C325.558 243.702 324.946 243.942 324.49 244.422C324.046 244.89 323.824 245.568 323.824 246.456V252H321.772V242.082H323.824V243.216C324.16 242.808 324.586 242.49 325.102 242.262C325.63 242.034 326.188 241.92 326.776 241.92ZM337.061 252.162C336.281 252.162 335.579 252.024 334.955 251.748C334.343 251.46 333.857 251.076 333.497 250.596C333.137 250.104 332.945 249.558 332.921 248.958H335.045C335.081 249.378 335.279 249.732 335.639 250.02C336.011 250.296 336.473 250.434 337.025 250.434C337.601 250.434 338.045 250.326 338.357 250.11C338.681 249.882 338.843 249.594 338.843 249.246C338.843 248.874 338.663 248.598 338.303 248.418C337.955 248.238 337.397 248.04 336.629 247.824C335.885 247.62 335.279 247.422 334.811 247.23C334.343 247.038 333.935 246.744 333.587 246.348C333.251 245.952 333.083 245.43 333.083 244.782C333.083 244.254 333.239 243.774 333.551 243.342C333.863 242.898 334.307 242.55 334.883 242.298C335.471 242.046 336.143 241.92 336.899 241.92C338.027 241.92 338.933 242.208 339.617 242.784C340.313 243.348 340.685 244.122 340.733 245.106H338.681C338.645 244.662 338.465 244.308 338.141 244.044C337.817 243.78 337.379 243.648 336.827 243.648C336.287 243.648 335.873 243.75 335.585 243.954C335.297 244.158 335.153 244.428 335.153 244.764C335.153 245.028 335.249 245.25 335.441 245.43C335.633 245.61 335.867 245.754 336.143 245.862C336.419 245.958 336.827 246.084 337.367 246.24C338.087 246.432 338.675 246.63 339.131 246.834C339.599 247.026 340.001 247.314 340.337 247.698C340.673 248.082 340.847 248.592 340.859 249.228C340.859 249.792 340.703 250.296 340.391 250.74C340.079 251.184 339.635 251.532 339.059 251.784C338.495 252.036 337.829 252.162 337.061 252.162ZM352.167 246.798C352.167 247.17 352.143 247.506 352.095 247.806H344.517C344.577 248.598 344.871 249.234 345.399 249.714C345.927 250.194 346.575 250.434 347.343 250.434C348.447 250.434 349.227 249.972 349.683 249.048H351.897C351.597 249.96 351.051 250.71 350.259 251.298C349.479 251.874 348.507 252.162 347.343 252.162C346.395 252.162 345.543 251.952 344.787 251.532C344.043 251.1 343.455 250.5 343.023 249.732C342.603 248.952 342.393 248.052 342.393 247.032C342.393 246.012 342.597 245.118 343.005 244.35C343.425 243.57 344.007 242.97 344.751 242.55C345.507 242.13 346.371 241.92 347.343 241.92C348.279 241.92 349.113 242.124 349.845 242.532C350.577 242.94 351.147 243.516 351.555 244.26C351.963 244.992 352.167 245.838 352.167 246.798ZM350.025 246.15C350.013 245.394 349.743 244.788 349.215 244.332C348.687 243.876 348.033 243.648 347.253 243.648C346.545 243.648 345.939 243.876 345.435 244.332C344.931 244.776 344.631 245.382 344.535 246.15H350.025ZM353.502 247.032C353.502 246.012 353.706 245.118 354.114 244.35C354.534 243.57 355.11 242.97 355.842 242.55C356.574 242.13 357.414 241.92 358.362 241.92C359.562 241.92 360.552 242.208 361.332 242.784C362.124 243.348 362.658 244.158 362.934 245.214H360.72C360.54 244.722 360.252 244.338 359.856 244.062C359.46 243.786 358.962 243.648 358.362 243.648C357.522 243.648 356.85 243.948 356.346 244.548C355.854 245.136 355.608 245.964 355.608 247.032C355.608 248.1 355.854 248.934 356.346 249.534C356.85 250.134 357.522 250.434 358.362 250.434C359.55 250.434 360.336 249.912 360.72 248.868H362.934C362.646 249.876 362.106 250.68 361.314 251.28C360.522 251.868 359.538 252.162 358.362 252.162C357.414 252.162 356.574 251.952 355.842 251.532C355.11 251.1 354.534 250.5 354.114 249.732C353.706 248.952 353.502 248.052 353.502 247.032ZM367.373 243.756V249.246C367.373 249.618 367.457 249.888 367.625 250.056C367.805 250.212 368.105 250.29 368.525 250.29H369.785V252H368.165C367.241 252 366.533 251.784 366.041 251.352C365.549 250.92 365.303 250.218 365.303 249.246V243.756H364.133V242.082H365.303V239.616H367.373V242.082H369.785V243.756H367.373ZM380.766 246.798C380.766 247.17 380.742 247.506 380.694 247.806H373.116C373.176 248.598 373.47 249.234 373.998 249.714C374.526 250.194 375.174 250.434 375.942 250.434C377.046 250.434 377.826 249.972 378.282 249.048H380.496C380.196 249.96 379.65 250.71 378.858 251.298C378.078 251.874 377.106 252.162 375.942 252.162C374.994 252.162 374.142 251.952 373.386 251.532C372.642 251.1 372.054 250.5 371.622 249.732C371.202 248.952 370.992 248.052 370.992 247.032C370.992 246.012 371.196 245.118 371.604 244.35C372.024 243.57 372.606 242.97 373.35 242.55C374.106 242.13 374.97 241.92 375.942 241.92C376.878 241.92 377.712 242.124 378.444 242.532C379.176 242.94 379.746 243.516 380.154 244.26C380.562 244.992 380.766 245.838 380.766 246.798ZM378.624 246.15C378.612 245.394 378.342 244.788 377.814 244.332C377.286 243.876 376.632 243.648 375.852 243.648C375.144 243.648 374.538 243.876 374.034 244.332C373.53 244.776 373.23 245.382 373.134 246.15H378.624ZM385.18 243.756V249.246C385.18 249.618 385.264 249.888 385.432 250.056C385.612 250.212 385.912 250.29 386.332 250.29H387.592V252H385.972C385.048 252 384.34 251.784 383.848 251.352C383.356 250.92 383.11 250.218 383.11 249.246V243.756H381.94V242.082H383.11V239.616H385.18V242.082H387.592V243.756H385.18ZM398.465 242.082V252H396.413V250.83C396.089 251.238 395.663 251.562 395.135 251.802C394.619 252.03 394.067 252.144 393.479 252.144C392.699 252.144 391.997 251.982 391.373 251.658C390.761 251.334 390.275 250.854 389.915 250.218C389.567 249.582 389.393 248.814 389.393 247.914V242.082H391.427V247.608C391.427 248.496 391.649 249.18 392.093 249.66C392.537 250.128 393.143 250.362 393.911 250.362C394.679 250.362 395.285 250.128 395.729 249.66C396.185 249.18 396.413 248.496 396.413 247.608V242.082H398.465ZM403.224 243.522C403.524 243.018 403.92 242.628 404.412 242.352C404.916 242.064 405.51 241.92 406.194 241.92V244.044H405.672C404.868 244.044 404.256 244.248 403.836 244.656C403.428 245.064 403.224 245.772 403.224 246.78V252H401.172V242.082H403.224V243.522ZM412.072 246.996C412.072 246 412.276 245.118 412.684 244.35C413.104 243.582 413.668 242.988 414.376 242.568C415.096 242.136 415.888 241.92 416.752 241.92C417.532 241.92 418.21 242.076 418.786 242.388C419.374 242.688 419.842 243.066 420.19 243.522V242.082H422.26V252H420.19V250.524C419.842 250.992 419.368 251.382 418.768 251.694C418.168 252.006 417.484 252.162 416.716 252.162C415.864 252.162 415.084 251.946 414.376 251.514C413.668 251.07 413.104 250.458 412.684 249.678C412.276 248.886 412.072 247.992 412.072 246.996ZM420.19 247.032C420.19 246.348 420.046 245.754 419.758 245.25C419.482 244.746 419.116 244.362 418.66 244.098C418.204 243.834 417.712 243.702 417.184 243.702C416.656 243.702 416.164 243.834 415.708 244.098C415.252 244.35 414.88 244.728 414.592 245.232C414.316 245.724 414.178 246.312 414.178 246.996C414.178 247.68 414.316 248.28 414.592 248.796C414.88 249.312 415.252 249.708 415.708 249.984C416.176 250.248 416.668 250.38 417.184 250.38C417.712 250.38 418.204 250.248 418.66 249.984C419.116 249.72 419.482 249.336 419.758 248.832C420.046 248.316 420.19 247.716 420.19 247.032ZM424.271 246.996C424.271 246 424.475 245.118 424.883 244.35C425.303 243.582 425.867 242.988 426.575 242.568C427.295 242.136 428.093 241.92 428.969 241.92C429.617 241.92 430.253 242.064 430.877 242.352C431.513 242.628 432.017 243 432.389 243.468V238.68H434.459V252H432.389V250.506C432.053 250.986 431.585 251.382 430.985 251.694C430.397 252.006 429.719 252.162 428.951 252.162C428.087 252.162 427.295 251.946 426.575 251.514C425.867 251.07 425.303 250.458 424.883 249.678C424.475 248.886 424.271 247.992 424.271 246.996ZM432.389 247.032C432.389 246.348 432.245 245.754 431.957 245.25C431.681 244.746 431.315 244.362 430.859 244.098C430.403 243.834 429.911 243.702 429.383 243.702C428.855 243.702 428.363 243.834 427.907 244.098C427.451 244.35 427.079 244.728 426.791 245.232C426.515 245.724 426.377 246.312 426.377 246.996C426.377 247.68 426.515 248.28 426.791 248.796C427.079 249.312 427.451 249.708 427.907 249.984C428.375 250.248 428.867 250.38 429.383 250.38C429.911 250.38 430.403 250.248 430.859 249.984C431.315 249.72 431.681 249.336 431.957 248.832C432.245 248.316 432.389 247.716 432.389 247.032ZM438.199 240.768C437.827 240.768 437.515 240.642 437.263 240.39C437.011 240.138 436.885 239.826 436.885 239.454C436.885 239.082 437.011 238.77 437.263 238.518C437.515 238.266 437.827 238.14 438.199 238.14C438.559 238.14 438.865 238.266 439.117 238.518C439.369 238.77 439.495 239.082 439.495 239.454C439.495 239.826 439.369 240.138 439.117 240.39C438.865 240.642 438.559 240.768 438.199 240.768ZM439.207 242.082V252H437.155V242.082H439.207ZM443.953 243.54C444.301 243.084 444.775 242.7 445.375 242.388C445.975 242.076 446.653 241.92 447.409 241.92C448.273 241.92 449.059 242.136 449.767 242.568C450.487 242.988 451.051 243.582 451.459 244.35C451.867 245.118 452.071 246 452.071 246.996C452.071 247.992 451.867 248.886 451.459 249.678C451.051 250.458 450.487 251.07 449.767 251.514C449.059 251.946 448.273 252.162 447.409 252.162C446.653 252.162 445.981 252.012 445.393 251.712C444.805 251.4 444.325 251.016 443.953 250.56V256.716H441.901V242.082H443.953V243.54ZM449.983 246.996C449.983 246.312 449.839 245.724 449.551 245.232C449.275 244.728 448.903 244.35 448.435 244.098C447.979 243.834 447.487 243.702 446.959 243.702C446.443 243.702 445.951 243.834 445.483 244.098C445.027 244.362 444.655 244.746 444.367 245.25C444.091 245.754 443.953 246.348 443.953 247.032C443.953 247.716 444.091 248.316 444.367 248.832C444.655 249.336 445.027 249.72 445.483 249.984C445.951 250.248 446.443 250.38 446.959 250.38C447.487 250.38 447.979 250.248 448.435 249.984C448.903 249.708 449.275 249.312 449.551 248.796C449.839 248.28 449.983 247.68 449.983 246.996ZM455.144 240.768C454.772 240.768 454.46 240.642 454.208 240.39C453.956 240.138 453.83 239.826 453.83 239.454C453.83 239.082 453.956 238.77 454.208 238.518C454.46 238.266 454.772 238.14 455.144 238.14C455.504 238.14 455.81 238.266 456.062 238.518C456.314 238.77 456.44 239.082 456.44 239.454C456.44 239.826 456.314 240.138 456.062 240.39C455.81 240.642 455.504 240.768 455.144 240.768ZM456.152 242.082V252H454.1V242.082H456.152ZM462.446 252.162C461.666 252.162 460.964 252.024 460.34 251.748C459.728 251.46 459.242 251.076 458.882 250.596C458.522 250.104 458.33 249.558 458.306 248.958H460.43C460.466 249.378 460.664 249.732 461.024 250.02C461.396 250.296 461.858 250.434 462.41 250.434C462.986 250.434 463.43 250.326 463.742 250.11C464.066 249.882 464.228 249.594 464.228 249.246C464.228 248.874 464.048 248.598 463.688 248.418C463.34 248.238 462.782 248.04 462.014 247.824C461.27 247.62 460.664 247.422 460.196 247.23C459.728 247.038 459.32 246.744 458.972 246.348C458.636 245.952 458.468 245.43 458.468 244.782C458.468 244.254 458.624 243.774 458.936 243.342C459.248 242.898 459.692 242.55 460.268 242.298C460.856 242.046 461.528 241.92 462.284 241.92C463.412 241.92 464.318 242.208 465.002 242.784C465.698 243.348 466.07 244.122 466.118 245.106H464.066C464.03 244.662 463.85 244.308 463.526 244.044C463.202 243.78 462.764 243.648 462.212 243.648C461.672 243.648 461.258 243.75 460.97 243.954C460.682 244.158 460.538 244.428 460.538 244.764C460.538 245.028 460.634 245.25 460.826 245.43C461.018 245.61 461.252 245.754 461.528 245.862C461.804 245.958 462.212 246.084 462.752 246.24C463.472 246.432 464.06 246.63 464.516 246.834C464.984 247.026 465.386 247.314 465.722 247.698C466.058 248.082 466.232 248.592 466.244 249.228C466.244 249.792 466.088 250.296 465.776 250.74C465.464 251.184 465.02 251.532 464.444 251.784C463.88 252.036 463.214 252.162 462.446 252.162ZM467.777 247.032C467.777 246.012 467.981 245.118 468.389 244.35C468.809 243.57 469.385 242.97 470.117 242.55C470.849 242.13 471.689 241.92 472.637 241.92C473.837 241.92 474.827 242.208 475.607 242.784C476.399 243.348 476.933 244.158 477.209 245.214H474.995C474.815 244.722 474.527 244.338 474.131 244.062C473.735 243.786 473.237 243.648 472.637 243.648C471.797 243.648 471.125 243.948 470.621 244.548C470.129 245.136 469.883 245.964 469.883 247.032C469.883 248.1 470.129 248.934 470.621 249.534C471.125 250.134 471.797 250.434 472.637 250.434C473.825 250.434 474.611 249.912 474.995 248.868H477.209C476.921 249.876 476.381 250.68 475.589 251.28C474.797 251.868 473.813 252.162 472.637 252.162C471.689 252.162 470.849 251.952 470.117 251.532C469.385 251.1 468.809 250.5 468.389 249.732C467.981 248.952 467.777 248.052 467.777 247.032ZM480.298 240.768C479.926 240.768 479.614 240.642 479.362 240.39C479.11 240.138 478.984 239.826 478.984 239.454C478.984 239.082 479.11 238.77 479.362 238.518C479.614 238.266 479.926 238.14 480.298 238.14C480.658 238.14 480.964 238.266 481.216 238.518C481.468 238.77 481.594 239.082 481.594 239.454C481.594 239.826 481.468 240.138 481.216 240.39C480.964 240.642 480.658 240.768 480.298 240.768ZM481.306 242.082V252H479.254V242.082H481.306ZM489.004 241.92C489.784 241.92 490.48 242.082 491.092 242.406C491.716 242.73 492.202 243.21 492.55 243.846C492.898 244.482 493.072 245.25 493.072 246.15V252H491.038V246.456C491.038 245.568 490.816 244.89 490.372 244.422C489.928 243.942 489.322 243.702 488.554 243.702C487.786 243.702 487.174 243.942 486.718 244.422C486.274 244.89 486.052 245.568 486.052 246.456V252H484V242.082H486.052V243.216C486.388 242.808 486.814 242.49 487.33 242.262C487.858 242.034 488.416 241.92 489.004 241.92ZM499.686 241.92C500.454 241.92 501.132 242.076 501.72 242.388C502.32 242.688 502.788 243.066 503.124 243.522V242.082H505.194V252.162C505.194 253.074 505.002 253.884 504.618 254.592C504.234 255.312 503.676 255.876 502.944 256.284C502.224 256.692 501.36 256.896 500.352 256.896C499.008 256.896 497.892 256.578 497.004 255.942C496.116 255.318 495.612 254.466 495.492 253.386H497.526C497.682 253.902 498.012 254.316 498.516 254.628C499.032 254.952 499.644 255.114 500.352 255.114C501.18 255.114 501.846 254.862 502.35 254.358C502.866 253.854 503.124 253.122 503.124 252.162V250.506C502.776 250.974 502.302 251.37 501.702 251.694C501.114 252.006 500.442 252.162 499.686 252.162C498.822 252.162 498.03 251.946 497.31 251.514C496.602 251.07 496.038 250.458 495.618 249.678C495.21 248.886 495.006 247.992 495.006 246.996C495.006 246 495.21 245.118 495.618 244.35C496.038 243.582 496.602 242.988 497.31 242.568C498.03 242.136 498.822 241.92 499.686 241.92ZM503.124 247.032C503.124 246.348 502.98 245.754 502.692 245.25C502.416 244.746 502.05 244.362 501.594 244.098C501.138 243.834 500.646 243.702 500.118 243.702C499.59 243.702 499.098 243.834 498.642 244.098C498.186 244.35 497.814 244.728 497.526 245.232C497.25 245.724 497.112 246.312 497.112 246.996C497.112 247.68 497.25 248.28 497.526 248.796C497.814 249.312 498.186 249.708 498.642 249.984C499.11 250.248 499.602 250.38 500.118 250.38C500.646 250.38 501.138 250.248 501.594 249.984C502.05 249.72 502.416 249.336 502.692 248.832C502.98 248.316 503.124 247.716 503.124 247.032ZM521.655 246.798C521.655 247.17 521.631 247.506 521.583 247.806H514.005C514.065 248.598 514.359 249.234 514.887 249.714C515.415 250.194 516.063 250.434 516.831 250.434C517.935 250.434 518.715 249.972 519.171 249.048H521.385C521.085 249.96 520.539 250.71 519.747 251.298C518.967 251.874 517.995 252.162 516.831 252.162C515.883 252.162 515.031 251.952 514.275 251.532C513.531 251.1 512.943 250.5 512.511 249.732C512.091 248.952 511.881 248.052 511.881 247.032C511.881 246.012 512.085 245.118 512.493 244.35C512.913 243.57 513.495 242.97 514.239 242.55C514.995 242.13 515.859 241.92 516.831 241.92C517.767 241.92 518.601 242.124 519.333 242.532C520.065 242.94 520.635 243.516 521.043 244.26C521.451 244.992 521.655 245.838 521.655 246.798ZM519.513 246.15C519.501 245.394 519.231 244.788 518.703 244.332C518.175 243.876 517.521 243.648 516.741 243.648C516.033 243.648 515.427 243.876 514.923 244.332C514.419 244.776 514.119 245.382 514.023 246.15H519.513ZM525.726 238.68V252H523.674V238.68H525.726ZM529.464 240.768C529.092 240.768 528.78 240.642 528.528 240.39C528.276 240.138 528.15 239.826 528.15 239.454C528.15 239.082 528.276 238.77 528.528 238.518C528.78 238.266 529.092 238.14 529.464 238.14C529.824 238.14 530.13 238.266 530.382 238.518C530.634 238.77 530.76 239.082 530.76 239.454C530.76 239.826 530.634 240.138 530.382 240.39C530.13 240.642 529.824 240.768 529.464 240.768ZM530.472 242.082V252H528.42V242.082H530.472ZM535.56 243.756V249.246C535.56 249.618 535.644 249.888 535.812 250.056C535.992 250.212 536.292 250.29 536.712 250.29H537.972V252H536.352C535.428 252 534.72 251.784 534.228 251.352C533.736 250.92 533.49 250.218 533.49 249.246V243.756H532.32V242.082H533.49V239.616H535.56V242.082H537.972V243.756H535.56ZM540.692 252.126C540.32 252.126 540.008 252 539.756 251.748C539.504 251.496 539.378 251.184 539.378 250.812C539.378 250.44 539.504 250.128 539.756 249.876C540.008 249.624 540.32 249.498 540.692 249.498C541.052 249.498 541.358 249.624 541.61 249.876C541.862 250.128 541.988 250.44 541.988 250.812C541.988 251.184 541.862 251.496 541.61 251.748C541.358 252 541.052 252.126 540.692 252.126ZM550.915 239.49V247.464C550.915 248.412 551.161 249.126 551.653 249.606C552.157 250.086 552.853 250.326 553.741 250.326C554.641 250.326 555.337 250.086 555.829 249.606C556.333 249.126 556.585 248.412 556.585 247.464V239.49H558.637V247.428C558.637 248.448 558.415 249.312 557.971 250.02C557.527 250.728 556.933 251.256 556.189 251.604C555.445 251.952 554.623 252.126 553.723 252.126C552.823 252.126 552.001 251.952 551.257 251.604C550.525 251.256 549.943 250.728 549.511 250.02C549.079 249.312 548.863 248.448 548.863 247.428V239.49H550.915ZM563.703 243.756V249.246C563.703 249.618 563.787 249.888 563.955 250.056C564.135 250.212 564.435 250.29 564.855 250.29H566.115V252H564.495C563.571 252 562.863 251.784 562.371 251.352C561.879 250.92 561.633 250.218 561.633 249.246V243.756H560.463V242.082H561.633V239.616H563.703V242.082H566.115V243.756H563.703ZM51.44 270.798C51.44 271.17 51.416 271.506 51.368 271.806H43.79C43.85 272.598 44.144 273.234 44.672 273.714C45.2 274.194 45.848 274.434 46.616 274.434C47.72 274.434 48.5 273.972 48.956 273.048H51.17C50.87 273.96 50.324 274.71 49.532 275.298C48.752 275.874 47.78 276.162 46.616 276.162C45.668 276.162 44.816 275.952 44.06 275.532C43.316 275.1 42.728 274.5 42.296 273.732C41.876 272.952 41.666 272.052 41.666 271.032C41.666 270.012 41.87 269.118 42.278 268.35C42.698 267.57 43.28 266.97 44.024 266.55C44.78 266.13 45.644 265.92 46.616 265.92C47.552 265.92 48.386 266.124 49.118 266.532C49.85 266.94 50.42 267.516 50.828 268.26C51.236 268.992 51.44 269.838 51.44 270.798ZM49.298 270.15C49.286 269.394 49.016 268.788 48.488 268.332C47.96 267.876 47.306 267.648 46.526 267.648C45.818 267.648 45.212 267.876 44.708 268.332C44.204 268.776 43.904 269.382 43.808 270.15H49.298ZM55.5114 262.68V276H53.4594V262.68H55.5114ZM59.2495 264.768C58.8775 264.768 58.5655 264.642 58.3135 264.39C58.0615 264.138 57.9355 263.826 57.9355 263.454C57.9355 263.082 58.0615 262.77 58.3135 262.518C58.5655 262.266 58.8775 262.14 59.2495 262.14C59.6095 262.14 59.9155 262.266 60.1675 262.518C60.4195 262.77 60.5455 263.082 60.5455 263.454C60.5455 263.826 60.4195 264.138 60.1675 264.39C59.9155 264.642 59.6095 264.768 59.2495 264.768ZM60.2575 266.082V276H58.2055V266.082H60.2575ZM65.3456 267.756V273.246C65.3456 273.618 65.4296 273.888 65.5976 274.056C65.7776 274.212 66.0776 274.29 66.4976 274.29H67.7576V276H66.1376C65.2136 276 64.5056 275.784 64.0136 275.352C63.5216 274.92 63.2756 274.218 63.2756 273.246V267.756H62.1056V266.082H63.2756V263.616H65.3456V266.082H67.7576V267.756H65.3456ZM76.7186 267.756V273.246C76.7186 273.618 76.8026 273.888 76.9706 274.056C77.1506 274.212 77.4506 274.29 77.8706 274.29H79.1306V276H77.5106C76.5866 276 75.8786 275.784 75.3866 275.352C74.8946 274.92 74.6486 274.218 74.6486 273.246V267.756H73.4786V266.082H74.6486V263.616H76.7186V266.082H79.1306V267.756H76.7186ZM90.1119 270.798C90.1119 271.17 90.0879 271.506 90.0399 271.806H82.4619C82.5219 272.598 82.8159 273.234 83.3439 273.714C83.8719 274.194 84.5199 274.434 85.2879 274.434C86.3919 274.434 87.1719 273.972 87.6279 273.048H89.8419C89.5419 273.96 88.9959 274.71 88.2039 275.298C87.4239 275.874 86.4519 276.162 85.2879 276.162C84.3399 276.162 83.4879 275.952 82.7319 275.532C81.9879 275.1 81.3999 274.5 80.9679 273.732C80.5479 272.952 80.3379 272.052 80.3379 271.032C80.3379 270.012 80.5419 269.118 80.9499 268.35C81.3699 267.57 81.9519 266.97 82.6959 266.55C83.4519 266.13 84.3159 265.92 85.2879 265.92C86.2239 265.92 87.0579 266.124 87.7899 266.532C88.5219 266.94 89.0919 267.516 89.4999 268.26C89.9079 268.992 90.1119 269.838 90.1119 270.798ZM87.9699 270.15C87.9579 269.394 87.6879 268.788 87.1599 268.332C86.6319 267.876 85.9779 267.648 85.1979 267.648C84.4899 267.648 83.8839 267.876 83.3799 268.332C82.8759 268.776 82.5759 269.382 82.4799 270.15H87.9699ZM94.1833 262.68V276H92.1313V262.68H94.1833ZM98.9293 262.68V276H96.8773V262.68H98.9293ZM110.605 266.082V276H108.553V274.83C108.229 275.238 107.803 275.562 107.275 275.802C106.759 276.03 106.207 276.144 105.619 276.144C104.839 276.144 104.137 275.982 103.513 275.658C102.901 275.334 102.415 274.854 102.055 274.218C101.707 273.582 101.533 272.814 101.533 271.914V266.082H103.567V271.608C103.567 272.496 103.789 273.18 104.233 273.66C104.677 274.128 105.283 274.362 106.051 274.362C106.819 274.362 107.425 274.128 107.869 273.66C108.325 273.18 108.553 272.496 108.553 271.608V266.082H110.605ZM116.913 276.162C116.133 276.162 115.431 276.024 114.807 275.748C114.195 275.46 113.709 275.076 113.349 274.596C112.989 274.104 112.797 273.558 112.773 272.958H114.897C114.933 273.378 115.131 273.732 115.491 274.02C115.863 274.296 116.325 274.434 116.877 274.434C117.453 274.434 117.897 274.326 118.209 274.11C118.533 273.882 118.695 273.594 118.695 273.246C118.695 272.874 118.515 272.598 118.155 272.418C117.807 272.238 117.249 272.04 116.481 271.824C115.737 271.62 115.131 271.422 114.663 271.23C114.195 271.038 113.787 270.744 113.439 270.348C113.103 269.952 112.935 269.43 112.935 268.782C112.935 268.254 113.091 267.774 113.403 267.342C113.715 266.898 114.159 266.55 114.735 266.298C115.323 266.046 115.995 265.92 116.751 265.92C117.879 265.92 118.785 266.208 119.469 266.784C120.165 267.348 120.537 268.122 120.585 269.106H118.533C118.497 268.662 118.317 268.308 117.993 268.044C117.669 267.78 117.231 267.648 116.679 267.648C116.139 267.648 115.725 267.75 115.437 267.954C115.149 268.158 115.005 268.428 115.005 268.764C115.005 269.028 115.101 269.25 115.293 269.43C115.485 269.61 115.719 269.754 115.995 269.862C116.271 269.958 116.679 270.084 117.219 270.24C117.939 270.432 118.527 270.63 118.983 270.834C119.451 271.026 119.853 271.314 120.189 271.698C120.525 272.082 120.699 272.592 120.711 273.228C120.711 273.792 120.555 274.296 120.243 274.74C119.931 275.184 119.487 275.532 118.911 275.784C118.347 276.036 117.681 276.162 116.913 276.162ZM125.178 273.534L123 278.502H121.668L122.946 273.534H125.178ZM133.699 262.68V276H131.647V262.68H133.699ZM145.375 266.082V276H143.323V274.83C142.999 275.238 142.573 275.562 142.045 275.802C141.529 276.03 140.977 276.144 140.389 276.144C139.609 276.144 138.907 275.982 138.283 275.658C137.671 275.334 137.185 274.854 136.825 274.218C136.477 273.582 136.303 272.814 136.303 271.914V266.082H138.337V271.608C138.337 272.496 138.559 273.18 139.003 273.66C139.447 274.128 140.053 274.362 140.821 274.362C141.589 274.362 142.195 274.128 142.639 273.66C143.095 273.18 143.323 272.496 143.323 271.608V266.082H145.375ZM147.398 271.032C147.398 270.012 147.602 269.118 148.01 268.35C148.43 267.57 149.006 266.97 149.738 266.55C150.47 266.13 151.31 265.92 152.258 265.92C153.458 265.92 154.448 266.208 155.228 266.784C156.02 267.348 156.554 268.158 156.83 269.214H154.616C154.436 268.722 154.148 268.338 153.752 268.062C153.356 267.786 152.858 267.648 152.258 267.648C151.418 267.648 150.746 267.948 150.242 268.548C149.75 269.136 149.504 269.964 149.504 271.032C149.504 272.1 149.75 272.934 150.242 273.534C150.746 274.134 151.418 274.434 152.258 274.434C153.446 274.434 154.232 273.912 154.616 272.868H156.83C156.542 273.876 156.002 274.68 155.21 275.28C154.418 275.868 153.434 276.162 152.258 276.162C151.31 276.162 150.47 275.952 149.738 275.532C149.006 275.1 148.43 274.5 148.01 273.732C147.602 272.952 147.398 272.052 147.398 271.032ZM161.269 267.756V273.246C161.269 273.618 161.353 273.888 161.521 274.056C161.701 274.212 162.001 274.29 162.421 274.29H163.681V276H162.061C161.137 276 160.429 275.784 159.937 275.352C159.445 274.92 159.199 274.218 159.199 273.246V267.756H158.029V266.082H159.199V263.616H161.269V266.082H163.681V267.756H161.269ZM174.555 266.082V276H172.503V274.83C172.179 275.238 171.753 275.562 171.225 275.802C170.709 276.03 170.157 276.144 169.569 276.144C168.789 276.144 168.087 275.982 167.463 275.658C166.851 275.334 166.365 274.854 166.005 274.218C165.657 273.582 165.483 272.814 165.483 271.914V266.082H167.517V271.608C167.517 272.496 167.739 273.18 168.183 273.66C168.627 274.128 169.233 274.362 170.001 274.362C170.769 274.362 171.375 274.128 171.819 273.66C172.275 273.18 172.503 272.496 172.503 271.608V266.082H174.555ZM180.862 276.162C180.082 276.162 179.38 276.024 178.756 275.748C178.144 275.46 177.658 275.076 177.298 274.596C176.938 274.104 176.746 273.558 176.722 272.958H178.846C178.882 273.378 179.08 273.732 179.44 274.02C179.812 274.296 180.274 274.434 180.826 274.434C181.402 274.434 181.846 274.326 182.158 274.11C182.482 273.882 182.644 273.594 182.644 273.246C182.644 272.874 182.464 272.598 182.104 272.418C181.756 272.238 181.198 272.04 180.43 271.824C179.686 271.62 179.08 271.422 178.612 271.23C178.144 271.038 177.736 270.744 177.388 270.348C177.052 269.952 176.884 269.43 176.884 268.782C176.884 268.254 177.04 267.774 177.352 267.342C177.664 266.898 178.108 266.55 178.684 266.298C179.272 266.046 179.944 265.92 180.7 265.92C181.828 265.92 182.734 266.208 183.418 266.784C184.114 267.348 184.486 268.122 184.534 269.106H182.482C182.446 268.662 182.266 268.308 181.942 268.044C181.618 267.78 181.18 267.648 180.628 267.648C180.088 267.648 179.674 267.75 179.386 267.954C179.098 268.158 178.954 268.428 178.954 268.764C178.954 269.028 179.05 269.25 179.242 269.43C179.434 269.61 179.668 269.754 179.944 269.862C180.22 269.958 180.628 270.084 181.168 270.24C181.888 270.432 182.476 270.63 182.932 270.834C183.4 271.026 183.802 271.314 184.138 271.698C184.474 272.082 184.648 272.592 184.66 273.228C184.66 273.792 184.504 274.296 184.192 274.74C183.88 275.184 183.436 275.532 182.86 275.784C182.296 276.036 181.63 276.162 180.862 276.162ZM196.557 265.92C197.337 265.92 198.033 266.082 198.645 266.406C199.269 266.73 199.755 267.21 200.103 267.846C200.451 268.482 200.625 269.25 200.625 270.15V276H198.591V270.456C198.591 269.568 198.369 268.89 197.925 268.422C197.481 267.942 196.875 267.702 196.107 267.702C195.339 267.702 194.727 267.942 194.271 268.422C193.827 268.89 193.605 269.568 193.605 270.456V276H191.553V266.082H193.605V267.216C193.941 266.808 194.367 266.49 194.883 266.262C195.411 266.034 195.969 265.92 196.557 265.92ZM212.333 270.798C212.333 271.17 212.309 271.506 212.261 271.806H204.683C204.743 272.598 205.037 273.234 205.565 273.714C206.093 274.194 206.741 274.434 207.509 274.434C208.613 274.434 209.393 273.972 209.849 273.048H212.063C211.763 273.96 211.217 274.71 210.425 275.298C209.645 275.874 208.673 276.162 207.509 276.162C206.561 276.162 205.709 275.952 204.953 275.532C204.209 275.1 203.621 274.5 203.189 273.732C202.769 272.952 202.559 272.052 202.559 271.032C202.559 270.012 202.763 269.118 203.171 268.35C203.591 267.57 204.173 266.97 204.917 266.55C205.673 266.13 206.537 265.92 207.509 265.92C208.445 265.92 209.279 266.124 210.011 266.532C210.743 266.94 211.313 267.516 211.721 268.26C212.129 268.992 212.333 269.838 212.333 270.798ZM210.191 270.15C210.179 269.394 209.909 268.788 209.381 268.332C208.853 267.876 208.199 267.648 207.419 267.648C206.711 267.648 206.105 267.876 205.601 268.332C205.097 268.776 204.797 269.382 204.701 270.15H210.191ZM213.668 271.032C213.668 270.012 213.872 269.118 214.28 268.35C214.7 267.57 215.276 266.97 216.008 266.55C216.74 266.13 217.58 265.92 218.528 265.92C219.728 265.92 220.718 266.208 221.498 266.784C222.29 267.348 222.824 268.158 223.1 269.214H220.886C220.706 268.722 220.418 268.338 220.022 268.062C219.626 267.786 219.128 267.648 218.528 267.648C217.688 267.648 217.016 267.948 216.512 268.548C216.02 269.136 215.774 269.964 215.774 271.032C215.774 272.1 216.02 272.934 216.512 273.534C217.016 274.134 217.688 274.434 218.528 274.434C219.716 274.434 220.502 273.912 220.886 272.868H223.1C222.812 273.876 222.272 274.68 221.48 275.28C220.688 275.868 219.704 276.162 218.528 276.162C217.58 276.162 216.74 275.952 216.008 275.532C215.276 275.1 214.7 274.5 214.28 273.732C213.872 272.952 213.668 272.052 213.668 271.032ZM238.803 266.082V276H236.751V274.83C236.427 275.238 236.001 275.562 235.473 275.802C234.957 276.03 234.405 276.144 233.817 276.144C233.037 276.144 232.335 275.982 231.711 275.658C231.099 275.334 230.613 274.854 230.253 274.218C229.905 273.582 229.731 272.814 229.731 271.914V266.082H231.765V271.608C231.765 272.496 231.987 273.18 232.431 273.66C232.875 274.128 233.481 274.362 234.249 274.362C235.017 274.362 235.623 274.128 236.067 273.66C236.523 273.18 236.751 272.496 236.751 271.608V266.082H238.803ZM243.562 262.68V276H241.51V262.68H243.562ZM248.308 262.68V276H246.256V262.68H248.308ZM250.318 270.996C250.318 270 250.522 269.118 250.93 268.35C251.35 267.582 251.914 266.988 252.622 266.568C253.342 266.136 254.134 265.92 254.998 265.92C255.778 265.92 256.456 266.076 257.032 266.388C257.62 266.688 258.088 267.066 258.436 267.522V266.082H260.506V276H258.436V274.524C258.088 274.992 257.614 275.382 257.014 275.694C256.414 276.006 255.73 276.162 254.962 276.162C254.11 276.162 253.33 275.946 252.622 275.514C251.914 275.07 251.35 274.458 250.93 273.678C250.522 272.886 250.318 271.992 250.318 270.996ZM258.436 271.032C258.436 270.348 258.292 269.754 258.004 269.25C257.728 268.746 257.362 268.362 256.906 268.098C256.45 267.834 255.958 267.702 255.43 267.702C254.902 267.702 254.41 267.834 253.954 268.098C253.498 268.35 253.126 268.728 252.838 269.232C252.562 269.724 252.424 270.312 252.424 270.996C252.424 271.68 252.562 272.28 252.838 272.796C253.126 273.312 253.498 273.708 253.954 273.984C254.422 274.248 254.914 274.38 255.43 274.38C255.958 274.38 256.45 274.248 256.906 273.984C257.362 273.72 257.728 273.336 258.004 272.832C258.292 272.316 258.436 271.716 258.436 271.032ZM275.208 265.92C275.988 265.92 276.684 266.082 277.296 266.406C277.92 266.73 278.406 267.21 278.754 267.846C279.114 268.482 279.294 269.25 279.294 270.15V276H277.26V270.456C277.26 269.568 277.038 268.89 276.594 268.422C276.15 267.942 275.544 267.702 274.776 267.702C274.008 267.702 273.396 267.942 272.94 268.422C272.496 268.89 272.274 269.568 272.274 270.456V276H270.24V270.456C270.24 269.568 270.018 268.89 269.574 268.422C269.13 267.942 268.524 267.702 267.756 267.702C266.988 267.702 266.376 267.942 265.92 268.422C265.476 268.89 265.254 269.568 265.254 270.456V276H263.202V266.082H265.254V267.216C265.59 266.808 266.016 266.49 266.532 266.262C267.048 266.034 267.6 265.92 268.188 265.92C268.98 265.92 269.688 266.088 270.312 266.424C270.936 266.76 271.416 267.246 271.752 267.882C272.052 267.282 272.52 266.808 273.156 266.46C273.792 266.1 274.476 265.92 275.208 265.92ZM281.221 271.032C281.221 270.012 281.425 269.118 281.833 268.35C282.253 267.57 282.829 266.97 283.561 266.55C284.293 266.13 285.133 265.92 286.081 265.92C287.281 265.92 288.271 266.208 289.051 266.784C289.843 267.348 290.377 268.158 290.653 269.214H288.439C288.259 268.722 287.971 268.338 287.575 268.062C287.179 267.786 286.681 267.648 286.081 267.648C285.241 267.648 284.569 267.948 284.065 268.548C283.573 269.136 283.327 269.964 283.327 271.032C283.327 272.1 283.573 272.934 284.065 273.534C284.569 274.134 285.241 274.434 286.081 274.434C287.269 274.434 288.055 273.912 288.439 272.868H290.653C290.365 273.876 289.825 274.68 289.033 275.28C288.241 275.868 287.257 276.162 286.081 276.162C285.133 276.162 284.293 275.952 283.561 275.532C282.829 275.1 282.253 274.5 281.833 273.732C281.425 272.952 281.221 272.052 281.221 271.032ZM297 276.162C296.064 276.162 295.218 275.952 294.462 275.532C293.706 275.1 293.112 274.5 292.68 273.732C292.248 272.952 292.032 272.052 292.032 271.032C292.032 270.024 292.254 269.13 292.698 268.35C293.142 267.57 293.748 266.97 294.516 266.55C295.284 266.13 296.142 265.92 297.09 265.92C298.038 265.92 298.896 266.13 299.664 266.55C300.432 266.97 301.038 267.57 301.482 268.35C301.926 269.13 302.148 270.024 302.148 271.032C302.148 272.04 301.92 272.934 301.464 273.714C301.008 274.494 300.384 275.1 299.592 275.532C298.812 275.952 297.948 276.162 297 276.162ZM297 274.38C297.528 274.38 298.02 274.254 298.476 274.002C298.944 273.75 299.322 273.372 299.61 272.868C299.898 272.364 300.042 271.752 300.042 271.032C300.042 270.312 299.904 269.706 299.628 269.214C299.352 268.71 298.986 268.332 298.53 268.08C298.074 267.828 297.582 267.702 297.054 267.702C296.526 267.702 296.034 267.828 295.578 268.08C295.134 268.332 294.78 268.71 294.516 269.214C294.252 269.706 294.12 270.312 294.12 271.032C294.12 272.1 294.39 272.928 294.93 273.516C295.482 274.092 296.172 274.38 297 274.38ZM306.228 267.522C306.528 267.018 306.924 266.628 307.416 266.352C307.92 266.064 308.514 265.92 309.198 265.92V268.044H308.676C307.872 268.044 307.26 268.248 306.84 268.656C306.432 269.064 306.228 269.772 306.228 270.78V276H304.176V266.082H306.228V267.522ZM313.136 267.54C313.484 267.084 313.958 266.7 314.558 266.388C315.158 266.076 315.836 265.92 316.592 265.92C317.456 265.92 318.242 266.136 318.95 266.568C319.67 266.988 320.234 267.582 320.642 268.35C321.05 269.118 321.254 270 321.254 270.996C321.254 271.992 321.05 272.886 320.642 273.678C320.234 274.458 319.67 275.07 318.95 275.514C318.242 275.946 317.456 276.162 316.592 276.162C315.836 276.162 315.164 276.012 314.576 275.712C313.988 275.4 313.508 275.016 313.136 274.56V280.716H311.084V266.082H313.136V267.54ZM319.166 270.996C319.166 270.312 319.022 269.724 318.734 269.232C318.458 268.728 318.086 268.35 317.618 268.098C317.162 267.834 316.67 267.702 316.142 267.702C315.626 267.702 315.134 267.834 314.666 268.098C314.21 268.362 313.838 268.746 313.55 269.25C313.274 269.754 313.136 270.348 313.136 271.032C313.136 271.716 313.274 272.316 313.55 272.832C313.838 273.336 314.21 273.72 314.666 273.984C315.134 274.248 315.626 274.38 316.142 274.38C316.67 274.38 317.162 274.248 317.618 273.984C318.086 273.708 318.458 273.312 318.734 272.796C319.022 272.28 319.166 271.68 319.166 270.996ZM332.374 270.798C332.374 271.17 332.35 271.506 332.302 271.806H324.724C324.784 272.598 325.078 273.234 325.606 273.714C326.134 274.194 326.782 274.434 327.55 274.434C328.654 274.434 329.434 273.972 329.89 273.048H332.104C331.804 273.96 331.258 274.71 330.466 275.298C329.686 275.874 328.714 276.162 327.55 276.162C326.602 276.162 325.75 275.952 324.994 275.532C324.25 275.1 323.662 274.5 323.23 273.732C322.81 272.952 322.6 272.052 322.6 271.032C322.6 270.012 322.804 269.118 323.212 268.35C323.632 267.57 324.214 266.97 324.958 266.55C325.714 266.13 326.578 265.92 327.55 265.92C328.486 265.92 329.32 266.124 330.052 266.532C330.784 266.94 331.354 267.516 331.762 268.26C332.17 268.992 332.374 269.838 332.374 270.798ZM330.232 270.15C330.22 269.394 329.95 268.788 329.422 268.332C328.894 267.876 328.24 267.648 327.46 267.648C326.752 267.648 326.146 267.876 325.642 268.332C325.138 268.776 324.838 269.382 324.742 270.15H330.232ZM336.445 267.522C336.745 267.018 337.141 266.628 337.633 266.352C338.137 266.064 338.731 265.92 339.415 265.92V268.044H338.893C338.089 268.044 337.477 268.248 337.057 268.656C336.649 269.064 336.445 269.772 336.445 270.78V276H334.393V266.082H336.445V267.522ZM357.983 265.92C358.763 265.92 359.459 266.082 360.071 266.406C360.695 266.73 361.181 267.21 361.529 267.846C361.889 268.482 362.069 269.25 362.069 270.15V276H360.035V270.456C360.035 269.568 359.813 268.89 359.369 268.422C358.925 267.942 358.319 267.702 357.551 267.702C356.783 267.702 356.171 267.942 355.715 268.422C355.271 268.89 355.049 269.568 355.049 270.456V276H353.015V270.456C353.015 269.568 352.793 268.89 352.349 268.422C351.905 267.942 351.299 267.702 350.531 267.702C349.763 267.702 349.151 267.942 348.695 268.422C348.251 268.89 348.029 269.568 348.029 270.456V276H345.977V266.082H348.029V267.216C348.365 266.808 348.791 266.49 349.307 266.262C349.823 266.034 350.375 265.92 350.963 265.92C351.755 265.92 352.463 266.088 353.087 266.424C353.711 266.76 354.191 267.246 354.527 267.882C354.827 267.282 355.295 266.808 355.931 266.46C356.567 266.1 357.251 265.92 357.983 265.92ZM363.996 270.996C363.996 270 364.2 269.118 364.608 268.35C365.028 267.582 365.592 266.988 366.3 266.568C367.02 266.136 367.812 265.92 368.676 265.92C369.456 265.92 370.134 266.076 370.71 266.388C371.298 266.688 371.766 267.066 372.114 267.522V266.082H374.184V276H372.114V274.524C371.766 274.992 371.292 275.382 370.692 275.694C370.092 276.006 369.408 276.162 368.64 276.162C367.788 276.162 367.008 275.946 366.3 275.514C365.592 275.07 365.028 274.458 364.608 273.678C364.2 272.886 363.996 271.992 363.996 270.996ZM372.114 271.032C372.114 270.348 371.97 269.754 371.682 269.25C371.406 268.746 371.04 268.362 370.584 268.098C370.128 267.834 369.636 267.702 369.108 267.702C368.58 267.702 368.088 267.834 367.632 268.098C367.176 268.35 366.804 268.728 366.516 269.232C366.24 269.724 366.102 270.312 366.102 270.996C366.102 271.68 366.24 272.28 366.516 272.796C366.804 273.312 367.176 273.708 367.632 273.984C368.1 274.248 368.592 274.38 369.108 274.38C369.636 274.38 370.128 274.248 370.584 273.984C371.04 273.72 371.406 273.336 371.682 272.832C371.97 272.316 372.114 271.716 372.114 271.032ZM379.273 267.756V273.246C379.273 273.618 379.357 273.888 379.525 274.056C379.705 274.212 380.005 274.29 380.425 274.29H381.685V276H380.065C379.141 276 378.433 275.784 377.941 275.352C377.449 274.92 377.203 274.218 377.203 273.246V267.756H376.033V266.082H377.203V263.616H379.273V266.082H381.685V267.756H379.273ZM385.971 267.756V273.246C385.971 273.618 386.055 273.888 386.223 274.056C386.403 274.212 386.703 274.29 387.123 274.29H388.383V276H386.763C385.839 276 385.131 275.784 384.639 275.352C384.147 274.92 383.901 274.218 383.901 273.246V267.756H382.731V266.082H383.901V263.616H385.971V266.082H388.383V267.756H385.971ZM391.318 264.768C390.946 264.768 390.634 264.642 390.382 264.39C390.13 264.138 390.004 263.826 390.004 263.454C390.004 263.082 390.13 262.77 390.382 262.518C390.634 262.266 390.946 262.14 391.318 262.14C391.678 262.14 391.984 262.266 392.236 262.518C392.488 262.77 392.614 263.082 392.614 263.454C392.614 263.826 392.488 264.138 392.236 264.39C391.984 264.642 391.678 264.768 391.318 264.768ZM392.326 266.082V276H390.274V266.082H392.326ZM398.62 276.162C397.84 276.162 397.138 276.024 396.514 275.748C395.902 275.46 395.416 275.076 395.056 274.596C394.696 274.104 394.504 273.558 394.48 272.958H396.604C396.64 273.378 396.838 273.732 397.198 274.02C397.57 274.296 398.032 274.434 398.584 274.434C399.16 274.434 399.604 274.326 399.916 274.11C400.24 273.882 400.402 273.594 400.402 273.246C400.402 272.874 400.222 272.598 399.862 272.418C399.514 272.238 398.956 272.04 398.188 271.824C397.444 271.62 396.838 271.422 396.37 271.23C395.902 271.038 395.494 270.744 395.146 270.348C394.81 269.952 394.642 269.43 394.642 268.782C394.642 268.254 394.798 267.774 395.11 267.342C395.422 266.898 395.866 266.55 396.442 266.298C397.03 266.046 397.702 265.92 398.458 265.92C399.586 265.92 400.492 266.208 401.176 266.784C401.872 267.348 402.244 268.122 402.292 269.106H400.24C400.204 268.662 400.024 268.308 399.7 268.044C399.376 267.78 398.938 267.648 398.386 267.648C397.846 267.648 397.432 267.75 397.144 267.954C396.856 268.158 396.712 268.428 396.712 268.764C396.712 269.028 396.808 269.25 397 269.43C397.192 269.61 397.426 269.754 397.702 269.862C397.978 269.958 398.386 270.084 398.926 270.24C399.646 270.432 400.234 270.63 400.69 270.834C401.158 271.026 401.56 271.314 401.896 271.698C402.232 272.082 402.406 272.592 402.418 273.228C402.418 273.792 402.262 274.296 401.95 274.74C401.638 275.184 401.194 275.532 400.618 275.784C400.054 276.036 399.388 276.162 398.62 276.162ZM405.463 276.126C405.091 276.126 404.779 276 404.527 275.748C404.275 275.496 404.149 275.184 404.149 274.812C404.149 274.44 404.275 274.128 404.527 273.876C404.779 273.624 405.091 273.498 405.463 273.498C405.823 273.498 406.129 273.624 406.381 273.876C406.633 274.128 406.759 274.44 406.759 274.812C406.759 275.184 406.633 275.496 406.381 275.748C406.129 276 405.823 276.126 405.463 276.126Z" fill="#333333"/>
<rect width="222" height="74" transform="translate(39 332)" fill="#B88E2F"/>
<path d="M118.792 369.24C119.443 369.379 119.965 369.704 120.36 370.216C120.755 370.717 120.952 371.293 120.952 371.944C120.952 372.883 120.621 373.629 119.96 374.184C119.309 374.728 118.397 375 117.224 375H111.992V363.768H117.048C118.189 363.768 119.08 364.029 119.72 364.552C120.371 365.075 120.696 365.784 120.696 366.68C120.696 367.341 120.52 367.891 120.168 368.328C119.827 368.765 119.368 369.069 118.792 369.24ZM114.728 368.312H116.52C116.968 368.312 117.309 368.216 117.544 368.024C117.789 367.821 117.912 367.528 117.912 367.144C117.912 366.76 117.789 366.467 117.544 366.264C117.309 366.061 116.968 365.96 116.52 365.96H114.728V368.312ZM116.744 372.792C117.203 372.792 117.555 372.691 117.8 372.488C118.056 372.275 118.184 371.971 118.184 371.576C118.184 371.181 118.051 370.872 117.784 370.648C117.528 370.424 117.171 370.312 116.712 370.312H114.728V372.792H116.744ZM125.227 363.768V370.488C125.227 371.16 125.392 371.677 125.723 372.04C126.054 372.403 126.539 372.584 127.179 372.584C127.819 372.584 128.31 372.403 128.651 372.04C128.992 371.677 129.163 371.16 129.163 370.488V363.768H131.899V370.472C131.899 371.475 131.686 372.323 131.259 373.016C130.832 373.709 130.256 374.232 129.531 374.584C128.816 374.936 128.016 375.112 127.131 375.112C126.246 375.112 125.451 374.941 124.747 374.6C124.054 374.248 123.504 373.725 123.099 373.032C122.694 372.328 122.491 371.475 122.491 370.472V363.768H125.227ZM143.452 363.768L139.564 371.288V375H136.828V371.288L132.94 363.768H136.044L138.22 368.472L140.38 363.768H143.452ZM157.993 375H155.257L150.681 368.072V375H147.945V363.768H150.681L155.257 370.728V363.768H157.993V375ZM165.288 375.112C164.232 375.112 163.262 374.867 162.376 374.376C161.502 373.885 160.803 373.203 160.28 372.328C159.768 371.443 159.512 370.451 159.512 369.352C159.512 368.253 159.768 367.267 160.28 366.392C160.803 365.517 161.502 364.835 162.376 364.344C163.262 363.853 164.232 363.608 165.288 363.608C166.344 363.608 167.31 363.853 168.184 364.344C169.07 364.835 169.763 365.517 170.264 366.392C170.776 367.267 171.032 368.253 171.032 369.352C171.032 370.451 170.776 371.443 170.264 372.328C169.752 373.203 169.059 373.885 168.184 374.376C167.31 374.867 166.344 375.112 165.288 375.112ZM165.288 372.616C166.184 372.616 166.899 372.317 167.432 371.72C167.976 371.123 168.248 370.333 168.248 369.352C168.248 368.36 167.976 367.571 167.432 366.984C166.899 366.387 166.184 366.088 165.288 366.088C164.382 366.088 163.656 366.381 163.112 366.968C162.579 367.555 162.312 368.349 162.312 369.352C162.312 370.344 162.579 371.139 163.112 371.736C163.656 372.323 164.382 372.616 165.288 372.616ZM188.01 363.768L185.083 375H181.771L179.979 367.608L178.123 375H174.811L171.963 363.768H174.891L176.507 371.944L178.507 363.768H181.515L183.435 371.944L185.067 363.768H188.01Z" fill="white"/>
<path d="M51.656 80H49.416L44.344 72.336V80H42.104V68.816H44.344L49.416 76.496V68.816H51.656V80ZM65.1096 75.376C65.1096 75.696 65.0883 75.984 65.0456 76.24H58.5656C58.619 76.88 58.843 77.3813 59.2376 77.744C59.6323 78.1066 60.1176 78.288 60.6936 78.288C61.5256 78.288 62.1176 77.9306 62.4696 77.216H64.8856C64.6296 78.0693 64.139 78.7733 63.4136 79.328C62.6883 79.872 61.7976 80.144 60.7416 80.144C59.8883 80.144 59.1203 79.9573 58.4376 79.584C57.7656 79.2 57.2376 78.6613 56.8536 77.968C56.4803 77.2746 56.2936 76.4746 56.2936 75.568C56.2936 74.6506 56.4803 73.8453 56.8536 73.152C57.227 72.4586 57.7496 71.9253 58.4216 71.552C59.0936 71.1786 59.867 70.992 60.7416 70.992C61.5843 70.992 62.3363 71.1733 62.9976 71.536C63.6696 71.8986 64.187 72.416 64.5496 73.088C64.923 73.7493 65.1096 74.512 65.1096 75.376ZM62.7896 74.736C62.779 74.16 62.571 73.7013 62.1656 73.36C61.7603 73.008 61.2643 72.832 60.6776 72.832C60.123 72.832 59.6536 73.0026 59.2696 73.344C58.8963 73.6746 58.667 74.1386 58.5816 74.736H62.7896ZM82.0326 71.136L79.4406 80H77.0246L75.4086 73.808L73.7926 80H71.3606L68.7526 71.136H71.0246L72.5926 77.888L74.2886 71.136H76.6566L78.3206 77.872L79.8886 71.136H82.0326ZM99.9051 77.872H95.4571L94.7211 80H92.3691L96.3851 68.816H98.9931L103.009 80H100.641L99.9051 77.872ZM99.2971 76.08L97.6811 71.408L96.0651 76.08H99.2971ZM109.75 72.512C110.038 72.0426 110.412 71.6746 110.87 71.408C111.34 71.1413 111.873 71.008 112.47 71.008V73.36H111.878C111.174 73.36 110.641 73.5253 110.278 73.856C109.926 74.1866 109.75 74.7626 109.75 75.584V80H107.51V71.136H109.75V72.512ZM119.219 72.512C119.507 72.0426 119.88 71.6746 120.339 71.408C120.808 71.1413 121.342 71.008 121.939 71.008V73.36H121.347C120.643 73.36 120.11 73.5253 119.747 73.856C119.395 74.1866 119.219 74.7626 119.219 75.584V80H116.979V71.136H119.219V72.512ZM127.584 70.08C127.189 70.08 126.858 69.9573 126.592 69.712C126.336 69.456 126.208 69.1413 126.208 68.768C126.208 68.3946 126.336 68.0853 126.592 67.84C126.858 67.584 127.189 67.456 127.584 67.456C127.978 67.456 128.304 67.584 128.56 67.84C128.826 68.0853 128.96 68.3946 128.96 68.768C128.96 69.1413 128.826 69.456 128.56 69.712C128.304 69.9573 127.978 70.08 127.584 70.08ZM128.688 71.136V80H126.448V71.136H128.688ZM137.597 77.936L139.837 71.136H142.221L138.941 80H136.221L132.957 71.136H135.357L137.597 77.936ZM145.903 75.536C145.903 74.64 146.079 73.8453 146.431 73.152C146.794 72.4586 147.279 71.9253 147.887 71.552C148.506 71.1786 149.194 70.992 149.951 70.992C150.612 70.992 151.188 71.1253 151.679 71.392C152.18 71.6586 152.58 71.9946 152.879 72.4V71.136H155.135V80H152.879V78.704C152.591 79.12 152.191 79.4666 151.679 79.744C151.178 80.0106 150.596 80.144 149.935 80.144C149.188 80.144 148.506 79.952 147.887 79.568C147.279 79.184 146.794 78.6453 146.431 77.952C146.079 77.248 145.903 76.4426 145.903 75.536ZM152.879 75.568C152.879 75.024 152.772 74.56 152.559 74.176C152.346 73.7813 152.058 73.4826 151.695 73.28C151.332 73.0666 150.943 72.96 150.527 72.96C150.111 72.96 149.727 73.0613 149.375 73.264C149.023 73.4666 148.735 73.7653 148.511 74.16C148.298 74.544 148.191 75.0026 148.191 75.536C148.191 76.0693 148.298 76.5386 148.511 76.944C148.735 77.3386 149.023 77.6426 149.375 77.856C149.738 78.0693 150.122 78.176 150.527 78.176C150.943 78.176 151.332 78.0746 151.695 77.872C152.058 77.6586 152.346 77.36 152.559 76.976C152.772 76.5813 152.879 76.112 152.879 75.568ZM162.563 68.16V80H160.323V68.16H162.563Z" fill="#333333"/>
</svg>
